<svg xmlns="http://www.w3.org/2000/svg" xmlns:xlink="http://www.w3.org/1999/xlink" width="500" zoomAndPan="magnify" viewBox="0 0 375 374.999991" height="500" preserveAspectRatio="xMidYMid meet" version="1.0"><defs><g/><clipPath id="fb9f59fb50"><path d="M 163.257812 95.253906 L 209.246094 95.253906 L 209.246094 233.964844 L 163.257812 233.964844 Z M 163.257812 95.253906 " clip-rule="nonzero"/></clipPath></defs><rect x="-37.5" width="450" fill="#ffffff" y="-37.499999" height="449.999989" fill-opacity="1"/><rect x="-37.5" width="450" fill="#000000" y="-37.499999" height="449.999989" fill-opacity="1"/><g fill="#faf6f5" fill-opacity="1"><g transform="translate(169.279388, 228.976267)"><g><path d="M 64.902344 0 C 95.550781 0 102.398438 -22.234375 102.398438 -34.253906 C 102.398438 -45.671875 96.269531 -66.222656 69.589844 -68.386719 C 88.9375 -71.390625 94.105469 -86.535156 94.105469 -93.625 C 94.105469 -101.558594 90.863281 -120.1875 62.257812 -120.1875 L 9.613281 -120.1875 L 9.613281 0 Z M 19.109375 -10.578125 C 19.109375 -12.257812 19.109375 -35.335938 19.230469 -60.453125 C 19.230469 -64.058594 21.632812 -66.464844 25.238281 -66.464844 L 54.324219 -66.464844 C 78.363281 -66.464844 90.980469 -53.84375 90.980469 -34.253906 C 90.980469 -14.664062 78.363281 -2.402344 54.324219 -2.402344 L 25.480469 -2.402344 C 21.152344 -2.402344 19.109375 -4.085938 19.109375 -10.578125 Z M 19.230469 -112.015625 C 19.710938 -116.582031 21.753906 -117.785156 25.480469 -117.785156 L 55.046875 -117.785156 C 73.914062 -117.785156 84.132812 -107.449219 84.132812 -93.988281 C 84.132812 -80.40625 73.914062 -68.867188 55.046875 -68.867188 L 25.238281 -68.867188 C 21.632812 -68.867188 19.230469 -71.269531 19.230469 -74.875 Z M 19.230469 -112.015625 "/></g></g></g><g clip-path="url(#fb9f59fb50)"><path fill="#000000" d="M 163.257812 95.253906 L 209.246094 95.253906 L 209.246094 233.929688 L 163.257812 233.929688 Z M 163.257812 95.253906 " fill-opacity="1" fill-rule="nonzero"/></g><g fill="#faf6f5" fill-opacity="1"><g transform="translate(92.379812, 228.976267)"><g><path d="M 9.613281 0 L 19.230469 0 C 19.230469 0 19.109375 -106.605469 19.109375 -110.210938 C 19.109375 -116.703125 21.152344 -117.785156 25.480469 -117.785156 L 54.324219 -117.785156 C 78.363281 -117.785156 90.980469 -105.523438 90.980469 -85.933594 C 90.980469 -66.34375 78.363281 -54.085938 54.324219 -54.085938 L 30.769531 -54.085938 L 30.769531 -51.679688 L 41.464844 -51.679688 C 55.886719 -51.679688 75.117188 -10.214844 92.183594 0 L 105.765625 0 C 100.355469 -3.605469 90.980469 -12.257812 83.53125 -22.234375 C 74.757812 -34.011719 68.144531 -43.027344 61.414062 -48.316406 C 58.53125 -50.597656 57.808594 -51.679688 61.414062 -51.679688 L 64.902344 -51.679688 C 95.550781 -52.042969 102.398438 -73.914062 102.398438 -85.933594 C 102.398438 -97.953125 95.550781 -120.1875 64.902344 -120.1875 L 9.613281 -120.1875 Z M 9.613281 0 "/></g></g></g><g fill="#faf6f5" fill-opacity="1"><g transform="translate(91.013985, 266.49051)"><g><path d="M 6.1875 -4.15625 C 6.46875 -4.03125 6.691406 -3.875 6.859375 -3.6875 C 7.035156 -3.507812 7.148438 -3.320312 7.203125 -3.125 C 7.265625 -2.925781 7.300781 -2.71875 7.3125 -2.5 C 7.332031 -2.28125 7.335938 -2.0625 7.328125 -1.84375 C 7.328125 -1.632812 7.328125 -1.429688 7.328125 -1.234375 C 7.335938 -1.046875 7.378906 -0.863281 7.453125 -0.6875 C 7.535156 -0.507812 7.660156 -0.367188 7.828125 -0.265625 L 7.828125 0 L 6.53125 0 C 6.375 -0.363281 6.296875 -0.820312 6.296875 -1.375 L 6.296875 -2.125 C 6.296875 -2.644531 6.179688 -3.023438 5.953125 -3.265625 C 5.734375 -3.503906 5.382812 -3.625 4.90625 -3.625 L 2.140625 -3.625 L 2.140625 0 L 1.078125 0 L 1.078125 -8.40625 L 4.953125 -8.40625 C 5.773438 -8.40625 6.40625 -8.210938 6.84375 -7.828125 C 7.28125 -7.441406 7.5 -6.882812 7.5 -6.15625 C 7.5 -5.675781 7.394531 -5.28125 7.1875 -4.96875 C 6.988281 -4.65625 6.65625 -4.382812 6.1875 -4.15625 Z M 6.390625 -6.015625 C 6.390625 -6.296875 6.347656 -6.535156 6.265625 -6.734375 C 6.179688 -6.929688 6.054688 -7.078125 5.890625 -7.171875 C 5.734375 -7.273438 5.5625 -7.347656 5.375 -7.390625 C 5.195312 -7.429688 4.984375 -7.453125 4.734375 -7.453125 L 2.140625 -7.453125 L 2.140625 -4.5625 L 4.734375 -4.5625 C 5.304688 -4.5625 5.722656 -4.675781 5.984375 -4.90625 C 6.253906 -5.144531 6.390625 -5.515625 6.390625 -6.015625 Z M 6.390625 -6.015625 "/></g></g></g><g fill="#faf6f5" fill-opacity="1"><g transform="translate(108.550438, 266.49051)"><g><path d="M 5.46875 -2.53125 L 2.234375 -2.53125 L 1.34375 0 L 0.203125 0 L 3.203125 -8.40625 L 4.578125 -8.40625 L 7.53125 0 L 6.328125 0 Z M 5.15625 -3.421875 L 3.875 -7.265625 L 2.484375 -3.421875 Z M 5.15625 -3.421875 "/></g></g></g><g fill="#faf6f5" fill-opacity="1"><g transform="translate(125.453053, 266.49051)"><g><path d="M 8.578125 0 L 7.40625 0 L 5.46875 -6.90625 L 3.578125 0 L 2.421875 0 L 0.25 -8.40625 L 1.453125 -8.40625 L 3.03125 -1.578125 L 4.90625 -8.40625 L 6.0625 -8.40625 L 7.96875 -1.578125 L 9.515625 -8.40625 L 10.71875 -8.40625 Z M 8.578125 0 "/></g></g></g><g fill="#faf6f5" fill-opacity="1"><g transform="translate(145.550515, 266.49051)"><g><path d="M 5.46875 -2.53125 L 2.234375 -2.53125 L 1.34375 0 L 0.203125 0 L 3.203125 -8.40625 L 4.578125 -8.40625 L 7.53125 0 L 6.328125 0 Z M 5.15625 -3.421875 L 3.875 -7.265625 L 2.484375 -3.421875 Z M 5.15625 -3.421875 "/></g></g></g><g fill="#faf6f5" fill-opacity="1"><g transform="translate(162.453128, 266.49051)"><g><path d="M 5.46875 -2.53125 L 2.234375 -2.53125 L 1.34375 0 L 0.203125 0 L 3.203125 -8.40625 L 4.578125 -8.40625 L 7.53125 0 L 6.328125 0 Z M 5.15625 -3.421875 L 3.875 -7.265625 L 2.484375 -3.421875 Z M 5.15625 -3.421875 "/></g></g></g><g fill="#faf6f5" fill-opacity="1"><g transform="translate(179.355742, 266.49051)"><g/></g></g><g fill="#faf6f5" fill-opacity="1"><g transform="translate(191.776597, 266.49051)"><g><path d="M 7.1875 -2.390625 C 7.1875 -1.671875 6.957031 -1.09375 6.5 -0.65625 C 6.050781 -0.21875 5.453125 0 4.703125 0 L 0.90625 0 L 0.90625 -8.40625 L 4.3125 -8.40625 C 4.695312 -8.40625 5.039062 -8.359375 5.34375 -8.265625 C 5.644531 -8.171875 5.882812 -8.050781 6.0625 -7.90625 C 6.238281 -7.757812 6.382812 -7.585938 6.5 -7.390625 C 6.625 -7.191406 6.707031 -7 6.75 -6.8125 C 6.789062 -6.632812 6.8125 -6.453125 6.8125 -6.265625 C 6.8125 -5.410156 6.425781 -4.804688 5.65625 -4.453125 C 6.1875 -4.234375 6.570312 -3.960938 6.8125 -3.640625 C 7.0625 -3.316406 7.1875 -2.898438 7.1875 -2.390625 Z M 5.734375 -6.125 C 5.734375 -6.382812 5.691406 -6.601562 5.609375 -6.78125 C 5.523438 -6.96875 5.398438 -7.109375 5.234375 -7.203125 C 5.066406 -7.296875 4.890625 -7.359375 4.703125 -7.390625 C 4.515625 -7.429688 4.300781 -7.453125 4.0625 -7.453125 L 1.984375 -7.453125 L 1.984375 -4.78125 L 4.0625 -4.78125 C 4.601562 -4.78125 5.015625 -4.882812 5.296875 -5.09375 C 5.585938 -5.300781 5.734375 -5.644531 5.734375 -6.125 Z M 4.59375 -0.953125 C 4.882812 -0.953125 5.132812 -0.992188 5.34375 -1.078125 C 5.550781 -1.171875 5.707031 -1.289062 5.8125 -1.4375 C 5.914062 -1.59375 5.988281 -1.75 6.03125 -1.90625 C 6.082031 -2.0625 6.109375 -2.222656 6.109375 -2.390625 C 6.109375 -2.828125 5.976562 -3.175781 5.71875 -3.4375 C 5.457031 -3.707031 5.082031 -3.84375 4.59375 -3.84375 L 1.984375 -3.84375 L 1.984375 -0.953125 Z M 4.59375 -0.953125 "/></g></g></g><g fill="#faf6f5" fill-opacity="1"><g transform="translate(208.67921, 266.49051)"><g><path d="M 5.46875 -2.53125 L 2.234375 -2.53125 L 1.34375 0 L 0.203125 0 L 3.203125 -8.40625 L 4.578125 -8.40625 L 7.53125 0 L 6.328125 0 Z M 5.15625 -3.421875 L 3.875 -7.265625 L 2.484375 -3.421875 Z M 5.15625 -3.421875 "/></g></g></g><g fill="#faf6f5" fill-opacity="1"><g transform="translate(225.581831, 266.49051)"><g><path d="M 2.109375 -3.828125 L 2.109375 -0.953125 L 7.078125 -0.953125 L 7.078125 0 L 1.03125 0 L 1.03125 -8.40625 L 6.859375 -8.40625 L 6.859375 -7.453125 L 2.109375 -7.453125 L 2.109375 -4.765625 L 6.6875 -4.765625 L 6.6875 -3.828125 Z M 2.109375 -3.828125 "/></g></g></g><g fill="#faf6f5" fill-opacity="1"><g transform="translate(242.484452, 266.49051)"><g><path d="M 3.953125 -0.671875 C 4.296875 -0.671875 4.597656 -0.707031 4.859375 -0.78125 C 5.128906 -0.851562 5.335938 -0.9375 5.484375 -1.03125 C 5.640625 -1.132812 5.765625 -1.257812 5.859375 -1.40625 C 5.953125 -1.550781 6.015625 -1.6875 6.046875 -1.8125 C 6.078125 -1.9375 6.09375 -2.066406 6.09375 -2.203125 C 6.09375 -2.535156 5.96875 -2.8125 5.71875 -3.03125 C 5.46875 -3.25 5.078125 -3.425781 4.546875 -3.5625 L 2.453125 -4.125 C 1.359375 -4.40625 0.8125 -5.054688 0.8125 -6.078125 C 0.8125 -6.835938 1.078125 -7.4375 1.609375 -7.875 C 2.148438 -8.320312 2.878906 -8.546875 3.796875 -8.546875 C 4.765625 -8.546875 5.515625 -8.316406 6.046875 -7.859375 C 6.585938 -7.398438 6.863281 -6.757812 6.875 -5.9375 L 5.859375 -5.9375 C 5.847656 -6.488281 5.660156 -6.910156 5.296875 -7.203125 C 4.941406 -7.492188 4.429688 -7.640625 3.765625 -7.640625 C 3.191406 -7.640625 2.734375 -7.507812 2.390625 -7.25 C 2.046875 -7 1.875 -6.660156 1.875 -6.234375 C 1.875 -5.898438 1.972656 -5.640625 2.171875 -5.453125 C 2.378906 -5.273438 2.742188 -5.117188 3.265625 -4.984375 L 5.375 -4.40625 C 5.945312 -4.257812 6.382812 -4.003906 6.6875 -3.640625 C 7 -3.273438 7.15625 -2.832031 7.15625 -2.3125 C 7.15625 -2.082031 7.125 -1.859375 7.0625 -1.640625 C 7.007812 -1.421875 6.90625 -1.191406 6.75 -0.953125 C 6.601562 -0.722656 6.410156 -0.519531 6.171875 -0.34375 C 5.929688 -0.164062 5.613281 -0.0195312 5.21875 0.09375 C 4.820312 0.207031 4.375 0.265625 3.875 0.265625 C 3.5625 0.265625 3.257812 0.238281 2.96875 0.1875 C 2.675781 0.132812 2.378906 0.0390625 2.078125 -0.09375 C 1.785156 -0.226562 1.53125 -0.398438 1.3125 -0.609375 C 1.09375 -0.816406 0.910156 -1.097656 0.765625 -1.453125 C 0.628906 -1.816406 0.554688 -2.222656 0.546875 -2.671875 L 1.5625 -2.671875 L 1.5625 -2.609375 C 1.5625 -2.378906 1.597656 -2.160156 1.671875 -1.953125 C 1.742188 -1.742188 1.863281 -1.535156 2.03125 -1.328125 C 2.195312 -1.128906 2.441406 -0.96875 2.765625 -0.84375 C 3.097656 -0.726562 3.492188 -0.671875 3.953125 -0.671875 Z M 3.953125 -0.671875 "/></g></g></g><g fill="#faf6f5" fill-opacity="1"><g transform="translate(259.387073, 266.49051)"><g><path d="M 3.953125 -0.671875 C 4.296875 -0.671875 4.597656 -0.707031 4.859375 -0.78125 C 5.128906 -0.851562 5.335938 -0.9375 5.484375 -1.03125 C 5.640625 -1.132812 5.765625 -1.257812 5.859375 -1.40625 C 5.953125 -1.550781 6.015625 -1.6875 6.046875 -1.8125 C 6.078125 -1.9375 6.09375 -2.066406 6.09375 -2.203125 C 6.09375 -2.535156 5.96875 -2.8125 5.71875 -3.03125 C 5.46875 -3.25 5.078125 -3.425781 4.546875 -3.5625 L 2.453125 -4.125 C 1.359375 -4.40625 0.8125 -5.054688 0.8125 -6.078125 C 0.8125 -6.835938 1.078125 -7.4375 1.609375 -7.875 C 2.148438 -8.320312 2.878906 -8.546875 3.796875 -8.546875 C 4.765625 -8.546875 5.515625 -8.316406 6.046875 -7.859375 C 6.585938 -7.398438 6.863281 -6.757812 6.875 -5.9375 L 5.859375 -5.9375 C 5.847656 -6.488281 5.660156 -6.910156 5.296875 -7.203125 C 4.941406 -7.492188 4.429688 -7.640625 3.765625 -7.640625 C 3.191406 -7.640625 2.734375 -7.507812 2.390625 -7.25 C 2.046875 -7 1.875 -6.660156 1.875 -6.234375 C 1.875 -5.898438 1.972656 -5.640625 2.171875 -5.453125 C 2.378906 -5.273438 2.742188 -5.117188 3.265625 -4.984375 L 5.375 -4.40625 C 5.945312 -4.257812 6.382812 -4.003906 6.6875 -3.640625 C 7 -3.273438 7.15625 -2.832031 7.15625 -2.3125 C 7.15625 -2.082031 7.125 -1.859375 7.0625 -1.640625 C 7.007812 -1.421875 6.90625 -1.191406 6.75 -0.953125 C 6.601562 -0.722656 6.410156 -0.519531 6.171875 -0.34375 C 5.929688 -0.164062 5.613281 -0.0195312 5.21875 0.09375 C 4.820312 0.207031 4.375 0.265625 3.875 0.265625 C 3.5625 0.265625 3.257812 0.238281 2.96875 0.1875 C 2.675781 0.132812 2.378906 0.0390625 2.078125 -0.09375 C 1.785156 -0.226562 1.53125 -0.398438 1.3125 -0.609375 C 1.09375 -0.816406 0.910156 -1.097656 0.765625 -1.453125 C 0.628906 -1.816406 0.554688 -2.222656 0.546875 -2.671875 L 1.5625 -2.671875 L 1.5625 -2.609375 C 1.5625 -2.378906 1.597656 -2.160156 1.671875 -1.953125 C 1.742188 -1.742188 1.863281 -1.535156 2.03125 -1.328125 C 2.195312 -1.128906 2.441406 -0.96875 2.765625 -0.84375 C 3.097656 -0.726562 3.492188 -0.671875 3.953125 -0.671875 Z M 3.953125 -0.671875 "/></g></g></g><g fill="#faf6f5" fill-opacity="1"><g transform="translate(276.289694, 266.49051)"><g><path d="M 5.46875 -2.53125 L 2.234375 -2.53125 L 1.34375 0 L 0.203125 0 L 3.203125 -8.40625 L 4.578125 -8.40625 L 7.53125 0 L 6.328125 0 Z M 5.15625 -3.421875 L 3.875 -7.265625 L 2.484375 -3.421875 Z M 5.15625 -3.421875 "/></g></g></g></svg>