<svg width="199" height="139" viewBox="0 0 199 139" fill="none" xmlns="http://www.w3.org/2000/svg">
<path d="M78.0938 91L61.875 68.6406C61.3438 68.7031 60.7812 68.7344 60.1875 68.7344C59.625 68.7344 59.0469 68.7344 58.4531 68.7344C58.1719 68.7344 57.8906 68.7344 57.6094 68.7344C57.3281 68.7031 57.0469 68.6719 56.7656 68.6406V82.5625C56.7656 84.0312 56.8438 85.2344 57 86.1719C57.1875 87.0781 57.5312 87.7969 58.0312 88.3281C58.5312 88.8281 59.2344 89.1719 60.1406 89.3594C61.0781 89.5469 62.2969 89.6406 63.7969 89.6406V91H43.2656V89.6406C44.7969 89.6406 46.0156 89.5469 46.9219 89.3594C47.8281 89.1719 48.5156 88.8281 48.9844 88.3281C49.4531 87.7969 49.75 87.0781 49.875 86.1719C50 85.2344 50.0625 84.0312 50.0625 82.5625V51.5312C50.0625 50.0312 50 48.8281 49.875 47.9219C49.75 46.9844 49.4531 46.25 48.9844 45.7188C48.5156 45.1875 47.8281 44.8281 46.9219 44.6406C46.0156 44.4531 44.7969 44.3594 43.2656 44.3594V43.0938H61.3125C62.7188 43.0938 64.1562 43.1406 65.625 43.2344C67.125 43.3281 68.5781 43.5312 69.9844 43.8438C71.4219 44.1562 72.7812 44.5938 74.0625 45.1562C75.3438 45.6875 76.4688 46.4219 77.4375 47.3594C78.4062 48.2656 79.1719 49.375 79.7344 50.6875C80.2969 52 80.5781 53.5625 80.5781 55.375C80.5781 57.1875 80.2812 58.7969 79.6875 60.2031C79.0938 61.5781 78.2656 62.7656 77.2031 63.7656C76.1719 64.7344 74.9375 65.5469 73.5 66.2031C72.0625 66.8281 70.5156 67.3125 68.8594 67.6562L78.6562 81.4844C79.5312 82.7031 80.375 83.7812 81.1875 84.7188C82 85.6562 82.875 86.4688 83.8125 87.1562C84.75 87.8438 85.7812 88.3906 86.9062 88.7969C88.0625 89.2031 89.4062 89.4844 90.9375 89.6406V91H78.0938ZM72.7031 55.9375C72.7031 54.4062 72.4531 53.0156 71.9531 51.7656C71.4531 50.5156 70.7344 49.4531 69.7969 48.5781C68.8906 47.6719 67.7969 46.9844 66.5156 46.5156C65.2656 46.0156 63.875 45.7656 62.3438 45.7656C61.4375 45.7656 60.5156 45.8281 59.5781 45.9531C58.6719 46.0781 57.7344 46.2188 56.7656 46.375V66.3438H58.7812C60.5 66.3438 62.1875 66.1719 63.8438 65.8281C65.5 65.4844 66.9844 64.9219 68.2969 64.1406C69.6094 63.3281 70.6719 62.2656 71.4844 60.9531C72.2969 59.6094 72.7031 57.9375 72.7031 55.9375Z" fill="white"/>
<path d="M141.25 77.9219C141.25 79.7969 140.953 81.4375 140.359 82.8438C139.766 84.2188 138.953 85.3906 137.922 86.3594C136.891 87.3281 135.688 88.125 134.312 88.75C132.969 89.3438 131.531 89.8125 130 90.1562C128.5 90.4688 126.953 90.6875 125.359 90.8125C123.797 90.9375 122.281 91 120.812 91H98.2656V89.6406C99.7656 89.6406 100.953 89.5469 101.828 89.3594C102.734 89.1406 103.422 88.7812 103.891 88.2812C104.359 87.75 104.672 87.0312 104.828 86.125C104.984 85.1875 105.062 84 105.062 82.5625V51.5312C105.062 50.0312 105 48.8281 104.875 47.9219C104.75 46.9844 104.453 46.25 103.984 45.7188C103.516 45.1875 102.828 44.8281 101.922 44.6406C101.016 44.4531 99.7969 44.3594 98.2656 44.3594V43.0938H118.891C120.359 43.0938 121.875 43.1562 123.438 43.2812C125 43.4062 126.531 43.6406 128.031 43.9844C129.531 44.2969 130.953 44.75 132.297 45.3438C133.641 45.9375 134.812 46.7188 135.812 47.6875C136.844 48.625 137.656 49.7812 138.25 51.1562C138.844 52.5 139.141 54.0938 139.141 55.9375C139.141 57.2812 138.906 58.5156 138.438 59.6406C138 60.7656 137.391 61.7812 136.609 62.6875C135.828 63.5625 134.906 64.3281 133.844 64.9844C132.781 65.6406 131.641 66.1562 130.422 66.5312C132.016 66.8125 133.469 67.25 134.781 67.8438C136.094 68.4062 137.234 69.1562 138.203 70.0938C139.172 71 139.922 72.1094 140.453 73.4219C140.984 74.7031 141.25 76.2031 141.25 77.9219ZM131.641 55.5625C131.641 53.6875 131.234 52.1094 130.422 50.8281C129.641 49.5469 128.609 48.5156 127.328 47.7344C126.078 46.9219 124.656 46.3438 123.062 46C121.5 45.6562 119.922 45.4844 118.328 45.4844C117.234 45.4844 116.141 45.5469 115.047 45.6719C113.984 45.7656 112.922 45.9375 111.859 46.1875V64.6094C112.984 64.8594 114.109 65 115.234 65.0312C116.391 65.0625 117.516 65.0781 118.609 65.0781C120.266 65.0781 121.875 64.9531 123.438 64.7031C125 64.4219 126.391 63.9219 127.609 63.2031C128.828 62.4844 129.797 61.5156 130.516 60.2969C131.266 59.0469 131.641 57.4688 131.641 55.5625ZM133.094 78.4375C133.094 76.375 132.641 74.6562 131.734 73.2812C130.828 71.875 129.656 70.75 128.219 69.9062C126.812 69.0625 125.219 68.4688 123.438 68.125C121.656 67.75 119.891 67.5625 118.141 67.5625C117.141 67.5625 116.125 67.5781 115.094 67.6094C114.062 67.6094 112.984 67.6875 111.859 67.8438V87.5312C113.234 87.8438 114.594 88.0938 115.938 88.2812C117.281 88.4375 118.656 88.5156 120.062 88.5156C121.656 88.5156 123.219 88.3438 124.75 88C126.312 87.625 127.703 87.0469 128.922 86.2656C130.172 85.4531 131.172 84.4062 131.922 83.125C132.703 81.8438 133.094 80.2812 133.094 78.4375Z" fill="white"/>
<path d="M171.797 88.6094H168.609L188.297 68.9219L168.609 49.1406H171.797L191.484 68.9219L171.797 88.6094Z" fill="white"/>
<path d="M26.2969 88.6094L6.60938 68.9219L26.2969 49.1406H29.4844L9.79688 68.9219L29.4844 88.6094H26.2969Z" fill="white"/>
<path d="M155.969 91.125H154.062L165 44.1562L166.969 44.0938L155.969 91.125Z" fill="white"/>
</svg>
