<svg width="100" height="44" viewBox="0 0 100 44" fill="none" xmlns="http://www.w3.org/2000/svg">
<rect y="8" width="100" height="28" fill="#D9D9D9"/>
<path d="M13.1484 31.8047L3.30469 21.9609L13.1484 12.0703H14.7422L4.89844 21.9609L14.7422 31.8047H13.1484Z" fill="white"/>
<path d="M64.125 27.4609C64.125 28.3984 63.9766 29.2188 63.6797 29.9219C63.3828 30.6094 62.9766 31.1953 62.4609 31.6797C61.9453 32.1641 61.3438 32.5625 60.6562 32.875C59.9844 33.1719 59.2656 33.4062 58.5 33.5781C57.75 33.7344 56.9766 33.8438 56.1797 33.9062C55.3984 33.9688 54.6406 34 53.9062 34H42.6328V33.3203C43.3828 33.3203 43.9766 33.2734 44.4141 33.1797C44.8672 33.0703 45.2109 32.8906 45.4453 32.6406C45.6797 32.375 45.8359 32.0156 45.9141 31.5625C45.9922 31.0938 46.0312 30.5 46.0312 29.7812V14.2656C46.0312 13.5156 46 12.9141 45.9375 12.4609C45.875 11.9922 45.7266 11.625 45.4922 11.3594C45.2578 11.0938 44.9141 10.9141 44.4609 10.8203C44.0078 10.7266 43.3984 10.6797 42.6328 10.6797V10.0469H52.9453C53.6797 10.0469 54.4375 10.0781 55.2188 10.1406C56 10.2031 56.7656 10.3203 57.5156 10.4922C58.2656 10.6484 58.9766 10.875 59.6484 11.1719C60.3203 11.4688 60.9062 11.8594 61.4062 12.3438C61.9219 12.8125 62.3281 13.3906 62.625 14.0781C62.9219 14.75 63.0703 15.5469 63.0703 16.4688C63.0703 17.1406 62.9531 17.7578 62.7188 18.3203C62.5 18.8828 62.1953 19.3906 61.8047 19.8438C61.4141 20.2812 60.9531 20.6641 60.4219 20.9922C59.8906 21.3203 59.3203 21.5781 58.7109 21.7656C59.5078 21.9062 60.2344 22.125 60.8906 22.4219C61.5469 22.7031 62.1172 23.0781 62.6016 23.5469C63.0859 24 63.4609 24.5547 63.7266 25.2109C63.9922 25.8516 64.125 26.6016 64.125 27.4609ZM59.3203 16.2812C59.3203 15.3438 59.1172 14.5547 58.7109 13.9141C58.3203 13.2734 57.8047 12.7578 57.1641 12.3672C56.5391 11.9609 55.8281 11.6719 55.0312 11.5C54.25 11.3281 53.4609 11.2422 52.6641 11.2422C52.1172 11.2422 51.5703 11.2734 51.0234 11.3359C50.4922 11.3828 49.9609 11.4688 49.4297 11.5938V20.8047C49.9922 20.9297 50.5547 21 51.1172 21.0156C51.6953 21.0312 52.2578 21.0391 52.8047 21.0391C53.6328 21.0391 54.4375 20.9766 55.2188 20.8516C56 20.7109 56.6953 20.4609 57.3047 20.1016C57.9141 19.7422 58.3984 19.2578 58.7578 18.6484C59.1328 18.0234 59.3203 17.2344 59.3203 16.2812ZM60.0469 27.7188C60.0469 26.6875 59.8203 25.8281 59.3672 25.1406C58.9141 24.4375 58.3281 23.875 57.6094 23.4531C56.9062 23.0312 56.1094 22.7344 55.2188 22.5625C54.3281 22.375 53.4453 22.2812 52.5703 22.2812C52.0703 22.2812 51.5625 22.2891 51.0469 22.3047C50.5312 22.3047 49.9922 22.3438 49.4297 22.4219V32.2656C50.1172 32.4219 50.7969 32.5469 51.4688 32.6406C52.1406 32.7188 52.8281 32.7578 53.5312 32.7578C54.3281 32.7578 55.1094 32.6719 55.875 32.5C56.6562 32.3125 57.3516 32.0234 57.9609 31.6328C58.5859 31.2266 59.0859 30.7031 59.4609 30.0625C59.8516 29.4219 60.0469 28.6406 60.0469 27.7188Z" fill="white"/>
<rect x="42" y="10" width="8" height="25" fill="#D9D9D9"/>
<path d="M42.0469 34L33.9375 22.8203C33.6719 22.8516 33.3906 22.8672 33.0938 22.8672C32.8125 22.8672 32.5234 22.8672 32.2266 22.8672C32.0859 22.8672 31.9453 22.8672 31.8047 22.8672C31.6641 22.8516 31.5234 22.8359 31.3828 22.8203V29.7812C31.3828 30.5156 31.4219 31.1172 31.5 31.5859C31.5938 32.0391 31.7656 32.3984 32.0156 32.6641C32.2656 32.9141 32.6172 33.0859 33.0703 33.1797C33.5391 33.2734 34.1484 33.3203 34.8984 33.3203V34H24.6328V33.3203C25.3984 33.3203 26.0078 33.2734 26.4609 33.1797C26.9141 33.0859 27.2578 32.9141 27.4922 32.6641C27.7266 32.3984 27.875 32.0391 27.9375 31.5859C28 31.1172 28.0312 30.5156 28.0312 29.7812V14.2656C28.0312 13.5156 28 12.9141 27.9375 12.4609C27.875 11.9922 27.7266 11.625 27.4922 11.3594C27.2578 11.0938 26.9141 10.9141 26.4609 10.8203C26.0078 10.7266 25.3984 10.6797 24.6328 10.6797V10.0469H33.6562C34.3594 10.0469 35.0781 10.0703 35.8125 10.1172C36.5625 10.1641 37.2891 10.2656 37.9922 10.4219C38.7109 10.5781 39.3906 10.7969 40.0312 11.0781C40.6719 11.3438 41.2344 11.7109 41.7188 12.1797C42.2031 12.6328 42.5859 13.1875 42.8672 13.8438C43.1484 14.5 43.2891 15.2812 43.2891 16.1875C43.2891 17.0938 43.1406 17.8984 42.8438 18.6016C42.5469 19.2891 42.1328 19.8828 41.6016 20.3828C41.0859 20.8672 40.4688 21.2734 39.75 21.6016C39.0312 21.9141 38.2578 22.1562 37.4297 22.3281L42.3281 29.2422C42.7656 29.8516 43.1875 30.3906 43.5938 30.8594C44 31.3281 44.4375 31.7344 44.9062 32.0781C45.375 32.4219 45.8906 32.6953 46.4531 32.8984C47.0312 33.1016 47.7031 33.2422 48.4688 33.3203V34H42.0469ZM39.3516 16.4688C39.3516 15.7031 39.2266 15.0078 38.9766 14.3828C38.7266 13.7578 38.3672 13.2266 37.8984 12.7891C37.4453 12.3359 36.8984 11.9922 36.2578 11.7578C35.6328 11.5078 34.9375 11.3828 34.1719 11.3828C33.7188 11.3828 33.2578 11.4141 32.7891 11.4766C32.3359 11.5391 31.8672 11.6094 31.3828 11.6875V21.6719H32.3906C33.25 21.6719 34.0938 21.5859 34.9219 21.4141C35.75 21.2422 36.4922 20.9609 37.1484 20.5703C37.8047 20.1641 38.3359 19.6328 38.7422 18.9766C39.1484 18.3047 39.3516 17.4688 39.3516 16.4688Z" fill="white"/>
<path d="M72.4805 37.0781H71.2891L78.125 7.72266L79.3555 7.68359L72.4805 37.0781Z" fill="white"/>
<path d="M85.8984 31.8047H84.3047L94.1484 21.9609L84.3047 12.0703H85.8984L95.7422 21.9609L85.8984 31.8047Z" fill="white"/>
</svg>
