<svg width="100" height="44" viewBox="0 0 100 44" fill="none" xmlns="http://www.w3.org/2000/svg">
<g clip-path="url(#clip0_3_9)">
<path d="M10.1484 31.8047L0.304688 21.9609L10.1484 12.0703H11.7422L1.89844 21.9609L11.7422 31.8047H10.1484Z" fill="white"/>
<path d="M69.125 27.4609C69.125 28.3984 68.9766 29.2188 68.6797 29.9219C68.3828 30.6094 67.9766 31.1953 67.4609 31.6797C66.9453 32.1641 66.3438 32.5625 65.6562 32.875C64.9844 33.1719 64.2656 33.4062 63.5 33.5781C62.75 33.7344 61.9766 33.8438 61.1797 33.9062C60.3984 33.9688 59.6406 34 58.9062 34H47.6328V33.3203C48.3828 33.3203 48.9766 33.2734 49.4141 33.1797C49.8672 33.0703 50.2109 32.8906 50.4453 32.6406C50.6797 32.375 50.8359 32.0156 50.9141 31.5625C50.9922 31.0938 51.0312 30.5 51.0312 29.7812V14.2656C51.0312 13.5156 51 12.9141 50.9375 12.4609C50.875 11.9922 50.7266 11.625 50.4922 11.3594C50.2578 11.0938 49.9141 10.9141 49.4609 10.8203C49.0078 10.7266 48.3984 10.6797 47.6328 10.6797V10.0469H57.9453C58.6797 10.0469 59.4375 10.0781 60.2188 10.1406C61 10.2031 61.7656 10.3203 62.5156 10.4922C63.2656 10.6484 63.9766 10.875 64.6484 11.1719C65.3203 11.4688 65.9062 11.8594 66.4062 12.3438C66.9219 12.8125 67.3281 13.3906 67.625 14.0781C67.9219 14.75 68.0703 15.5469 68.0703 16.4688C68.0703 17.1406 67.9531 17.7578 67.7188 18.3203C67.5 18.8828 67.1953 19.3906 66.8047 19.8438C66.4141 20.2812 65.9531 20.6641 65.4219 20.9922C64.8906 21.3203 64.3203 21.5781 63.7109 21.7656C64.5078 21.9062 65.2344 22.125 65.8906 22.4219C66.5469 22.7031 67.1172 23.0781 67.6016 23.5469C68.0859 24 68.4609 24.5547 68.7266 25.2109C68.9922 25.8516 69.125 26.6016 69.125 27.4609ZM64.3203 16.2812C64.3203 15.3438 64.1172 14.5547 63.7109 13.9141C63.3203 13.2734 62.8047 12.7578 62.1641 12.3672C61.5391 11.9609 60.8281 11.6719 60.0312 11.5C59.25 11.3281 58.4609 11.2422 57.6641 11.2422C57.1172 11.2422 56.5703 11.2734 56.0234 11.3359C55.4922 11.3828 54.9609 11.4688 54.4297 11.5938V20.8047C54.9922 20.9297 55.5547 21 56.1172 21.0156C56.6953 21.0312 57.2578 21.0391 57.8047 21.0391C58.6328 21.0391 59.4375 20.9766 60.2188 20.8516C61 20.7109 61.6953 20.4609 62.3047 20.1016C62.9141 19.7422 63.3984 19.2578 63.7578 18.6484C64.1328 18.0234 64.3203 17.2344 64.3203 16.2812ZM65.0469 27.7188C65.0469 26.6875 64.8203 25.8281 64.3672 25.1406C63.9141 24.4375 63.3281 23.875 62.6094 23.4531C61.9062 23.0312 61.1094 22.7344 60.2188 22.5625C59.3281 22.375 58.4453 22.2812 57.5703 22.2812C57.0703 22.2812 56.5625 22.2891 56.0469 22.3047C55.5312 22.3047 54.9922 22.3438 54.4297 22.4219V32.2656C55.1172 32.4219 55.7969 32.5469 56.4688 32.6406C57.1406 32.7188 57.8281 32.7578 58.5312 32.7578C59.3281 32.7578 60.1094 32.6719 60.875 32.5C61.6562 32.3125 62.3516 32.0234 62.9609 31.6328C63.5859 31.2266 64.0859 30.7031 64.4609 30.0625C64.8516 29.4219 65.0469 28.6406 65.0469 27.7188Z" fill="white"/>
<path d="M39.0469 34L30.9375 22.8203C30.6719 22.8516 30.3906 22.8672 30.0938 22.8672C29.8125 22.8672 29.5234 22.8672 29.2266 22.8672C29.0859 22.8672 28.9453 22.8672 28.8047 22.8672C28.6641 22.8516 28.5234 22.8359 28.3828 22.8203V29.7812C28.3828 30.5156 28.4219 31.1172 28.5 31.5859C28.5938 32.0391 28.7656 32.3984 29.0156 32.6641C29.2656 32.9141 29.6172 33.0859 30.0703 33.1797C30.5391 33.2734 31.1484 33.3203 31.8984 33.3203V34H21.6328V33.3203C22.3984 33.3203 23.0078 33.2734 23.4609 33.1797C23.9141 33.0859 24.2578 32.9141 24.4922 32.6641C24.7266 32.3984 24.875 32.0391 24.9375 31.5859C25 31.1172 25.0312 30.5156 25.0312 29.7812V14.2656C25.0312 13.5156 25 12.9141 24.9375 12.4609C24.875 11.9922 24.7266 11.625 24.4922 11.3594C24.2578 11.0938 23.9141 10.9141 23.4609 10.8203C23.0078 10.7266 22.3984 10.6797 21.6328 10.6797V10.0469H30.6562C31.3594 10.0469 32.0781 10.0703 32.8125 10.1172C33.5625 10.1641 34.2891 10.2656 34.9922 10.4219C35.7109 10.5781 36.3906 10.7969 37.0312 11.0781C37.6719 11.3438 38.2344 11.7109 38.7188 12.1797C39.2031 12.6328 39.5859 13.1875 39.8672 13.8438C40.1484 14.5 40.2891 15.2812 40.2891 16.1875C40.2891 17.0938 40.1406 17.8984 39.8438 18.6016C39.5469 19.2891 39.1328 19.8828 38.6016 20.3828C38.0859 20.8672 37.4688 21.2734 36.75 21.6016C36.0312 21.9141 35.2578 22.1562 34.4297 22.3281L39.3281 29.2422C39.7656 29.8516 40.1875 30.3906 40.5938 30.8594C41 31.3281 41.4375 31.7344 41.9062 32.0781C42.375 32.4219 42.8906 32.6953 43.4531 32.8984C44.0312 33.1016 44.7031 33.2422 45.4688 33.3203V34H39.0469ZM36.3516 16.4688C36.3516 15.7031 36.2266 15.0078 35.9766 14.3828C35.7266 13.7578 35.3672 13.2266 34.8984 12.7891C34.4453 12.3359 33.8984 11.9922 33.2578 11.7578C32.6328 11.5078 31.9375 11.3828 31.1719 11.3828C30.7188 11.3828 30.2578 11.4141 29.7891 11.4766C29.3359 11.5391 28.8672 11.6094 28.3828 11.6875V21.6719H29.3906C30.25 21.6719 31.0938 21.5859 31.9219 21.4141C32.75 21.2422 33.4922 20.9609 34.1484 20.5703C34.8047 20.1641 35.3359 19.6328 35.7422 18.9766C36.1484 18.3047 36.3516 17.4688 36.3516 16.4688Z" fill="white"/>
<path d="M77.4805 37.0781H76.2891L83.125 7.72266L84.3555 7.68359L77.4805 37.0781Z" fill="white"/>
<path d="M88.8984 31.8047H87.3047L97.1484 21.9609L87.3047 12.0703H88.8984L98.7422 21.9609L88.8984 31.8047Z" fill="white"/>
</g>
<defs>
<clipPath id="clip0_3_9">
<rect width="100" height="44" fill="white"/>
</clipPath>
</defs>
</svg>
