<svg width="207" height="139" viewBox="0 0 207 139" fill="none" xmlns="http://www.w3.org/2000/svg">
<path d="M85.0938 91L68.875 68.6406C68.3438 68.7031 67.7812 68.7344 67.1875 68.7344C66.625 68.7344 66.0469 68.7344 65.4531 68.7344C65.1719 68.7344 64.8906 68.7344 64.6094 68.7344C64.3281 68.7031 64.0469 68.6719 63.7656 68.6406V82.5625C63.7656 84.0312 63.8438 85.2344 64 86.1719C64.1875 87.0781 64.5312 87.7969 65.0312 88.3281C65.5312 88.8281 66.2344 89.1719 67.1406 89.3594C68.0781 89.5469 69.2969 89.6406 70.7969 89.6406V91H50.2656V89.6406C51.7969 89.6406 53.0156 89.5469 53.9219 89.3594C54.8281 89.1719 55.5156 88.8281 55.9844 88.3281C56.4531 87.7969 56.75 87.0781 56.875 86.1719C57 85.2344 57.0625 84.0312 57.0625 82.5625V51.5312C57.0625 50.0312 57 48.8281 56.875 47.9219C56.75 46.9844 56.4531 46.25 55.9844 45.7188C55.5156 45.1875 54.8281 44.8281 53.9219 44.6406C53.0156 44.4531 51.7969 44.3594 50.2656 44.3594V43.0938H68.3125C69.7188 43.0938 71.1562 43.1406 72.625 43.2344C74.125 43.3281 75.5781 43.5312 76.9844 43.8438C78.4219 44.1562 79.7812 44.5938 81.0625 45.1562C82.3438 45.6875 83.4688 46.4219 84.4375 47.3594C85.4062 48.2656 86.1719 49.375 86.7344 50.6875C87.2969 52 87.5781 53.5625 87.5781 55.375C87.5781 57.1875 87.2812 58.7969 86.6875 60.2031C86.0938 61.5781 85.2656 62.7656 84.2031 63.7656C83.1719 64.7344 81.9375 65.5469 80.5 66.2031C79.0625 66.8281 77.5156 67.3125 75.8594 67.6562L85.6562 81.4844C86.5312 82.7031 87.375 83.7812 88.1875 84.7188C89 85.6562 89.875 86.4688 90.8125 87.1562C91.75 87.8438 92.7812 88.3906 93.9062 88.7969C95.0625 89.2031 96.4062 89.4844 97.9375 89.6406V91H85.0938ZM79.7031 55.9375C79.7031 54.4062 79.4531 53.0156 78.9531 51.7656C78.4531 50.5156 77.7344 49.4531 76.7969 48.5781C75.8906 47.6719 74.7969 46.9844 73.5156 46.5156C72.2656 46.0156 70.875 45.7656 69.3438 45.7656C68.4375 45.7656 67.5156 45.8281 66.5781 45.9531C65.6719 46.0781 64.7344 46.2188 63.7656 46.375V66.3438H65.7812C67.5 66.3438 69.1875 66.1719 70.8438 65.8281C72.5 65.4844 73.9844 64.9219 75.2969 64.1406C76.6094 63.3281 77.6719 62.2656 78.4844 60.9531C79.2969 59.6094 79.7031 57.9375 79.7031 55.9375Z" fill="white"/>
<path d="M150.25 77.9219C150.25 79.7969 149.953 81.4375 149.359 82.8438C148.766 84.2188 147.953 85.3906 146.922 86.3594C145.891 87.3281 144.688 88.125 143.312 88.75C141.969 89.3438 140.531 89.8125 139 90.1562C137.5 90.4688 135.953 90.6875 134.359 90.8125C132.797 90.9375 131.281 91 129.812 91H107.266V89.6406C108.766 89.6406 109.953 89.5469 110.828 89.3594C111.734 89.1406 112.422 88.7812 112.891 88.2812C113.359 87.75 113.672 87.0312 113.828 86.125C113.984 85.1875 114.062 84 114.062 82.5625V51.5312C114.062 50.0312 114 48.8281 113.875 47.9219C113.75 46.9844 113.453 46.25 112.984 45.7188C112.516 45.1875 111.828 44.8281 110.922 44.6406C110.016 44.4531 108.797 44.3594 107.266 44.3594V43.0938H127.891C129.359 43.0938 130.875 43.1562 132.438 43.2812C134 43.4062 135.531 43.6406 137.031 43.9844C138.531 44.2969 139.953 44.75 141.297 45.3438C142.641 45.9375 143.812 46.7188 144.812 47.6875C145.844 48.625 146.656 49.7812 147.25 51.1562C147.844 52.5 148.141 54.0938 148.141 55.9375C148.141 57.2812 147.906 58.5156 147.438 59.6406C147 60.7656 146.391 61.7812 145.609 62.6875C144.828 63.5625 143.906 64.3281 142.844 64.9844C141.781 65.6406 140.641 66.1562 139.422 66.5312C141.016 66.8125 142.469 67.25 143.781 67.8438C145.094 68.4062 146.234 69.1562 147.203 70.0938C148.172 71 148.922 72.1094 149.453 73.4219C149.984 74.7031 150.25 76.2031 150.25 77.9219ZM140.641 55.5625C140.641 53.6875 140.234 52.1094 139.422 50.8281C138.641 49.5469 137.609 48.5156 136.328 47.7344C135.078 46.9219 133.656 46.3438 132.062 46C130.5 45.6562 128.922 45.4844 127.328 45.4844C126.234 45.4844 125.141 45.5469 124.047 45.6719C122.984 45.7656 121.922 45.9375 120.859 46.1875V64.6094C121.984 64.8594 123.109 65 124.234 65.0312C125.391 65.0625 126.516 65.0781 127.609 65.0781C129.266 65.0781 130.875 64.9531 132.438 64.7031C134 64.4219 135.391 63.9219 136.609 63.2031C137.828 62.4844 138.797 61.5156 139.516 60.2969C140.266 59.0469 140.641 57.4688 140.641 55.5625ZM142.094 78.4375C142.094 76.375 141.641 74.6562 140.734 73.2812C139.828 71.875 138.656 70.75 137.219 69.9062C135.812 69.0625 134.219 68.4688 132.438 68.125C130.656 67.75 128.891 67.5625 127.141 67.5625C126.141 67.5625 125.125 67.5781 124.094 67.6094C123.062 67.6094 121.984 67.6875 120.859 67.8438V87.5312C122.234 87.8438 123.594 88.0938 124.938 88.2812C126.281 88.4375 127.656 88.5156 129.062 88.5156C130.656 88.5156 132.219 88.3438 133.75 88C135.312 87.625 136.703 87.0469 137.922 86.2656C139.172 85.4531 140.172 84.4062 140.922 83.125C141.703 81.8438 142.094 80.2812 142.094 78.4375Z" fill="white"/>
<path d="M186.797 88.6094H183.609L203.297 68.9219L183.609 49.1406H186.797L206.484 68.9219L186.797 88.6094Z" fill="white"/>
<path d="M26.2969 88.6094L6.60938 68.9219L26.2969 49.1406H29.4844L9.79688 68.9219L29.4844 88.6094H26.2969Z" fill="white"/>
<path d="M166.969 91.125H165.062L176 44.1562L177.969 44.0938L166.969 91.125Z" fill="white"/>
</svg>
